<svg width="164" height="44" viewBox="0 0 164 44" fill="none" xmlns="http://www.w3.org/2000/svg">
<path d="M10.9578 43.3974C11.4965 43.4942 12.0352 43.5772 12.5877 43.6325C14.4109 43.8122 16.1651 43.7155 17.795 43.3836C20.9995 42.7614 23.6929 41.2542 25.3366 39.2078C29.6046 34.9768 25.5438 25.5605 25.5438 25.5605C24.1349 21.6613 22.1874 19.1862 21.179 18.0801C20.7785 17.6514 20.2674 17.3334 19.7011 17.1675L12.1595 14.9966C11.4275 14.7892 10.654 14.8445 9.96333 15.1349C3.56816 17.9003 1.13717 26.6805 0.34986 30.6212C0.23936 31.1743 0.156485 31.6444 0.115048 31.9763C0.0874229 32.1007 0.0736105 32.2252 0.0597981 32.3496C0.0459856 32.4879 0.0321732 32.557 0.0321732 32.557C-0.064514 33.5664 0.059798 34.5758 0.363672 35.5298C1.56536 39.2908 5.68147 42.4157 10.9578 43.3974ZM10.212 31.4508C10.8611 31.3679 11.4689 31.6859 11.8695 32.1975C12.2562 32.6953 12.8639 32.958 13.6927 33.0133C14.6596 33.0686 15.1706 32.8336 15.1983 32.3081C15.2121 32.0316 15.1154 31.8103 14.8944 31.6306C14.6734 31.4647 14.2866 31.2987 13.7203 31.1467C11.4827 30.5521 10.0876 29.8884 9.52133 29.1417C8.95502 28.3951 8.7064 27.5654 8.76165 26.6529C8.8169 25.6435 9.21746 24.7724 9.92189 24.0257C10.5435 23.3897 11.3998 22.9887 12.5186 22.8089V22.2282C12.5186 21.4677 13.1402 20.8455 13.8999 20.8455C14.6596 20.8455 15.2811 21.4677 15.2811 22.2282V22.8781C15.3502 22.8919 15.4054 22.9057 15.4745 22.9195C16.3999 23.1269 17.1596 23.4865 17.7674 23.9842C18.7619 24.8139 18.3337 26.4178 17.0767 26.722C16.4966 26.8603 15.8889 26.6667 15.4883 26.2242C15.143 25.8371 14.6319 25.6296 13.9828 25.5882C13.1264 25.5329 12.6844 25.7817 12.6568 26.321C12.6429 26.5146 12.712 26.6943 12.8363 26.8326C12.9606 26.9709 13.3612 27.1506 13.9966 27.3304C15.4607 27.7452 16.5104 28.0909 17.1458 28.3951C17.7812 28.6854 18.2922 29.1556 18.679 29.7778C19.0657 30.4138 19.2453 31.1328 19.1901 31.9624C19.121 33.1239 18.6376 34.0642 17.7674 34.797C17.1044 35.3363 16.2894 35.6958 15.2949 35.8755V36.6222C15.2949 37.3827 14.6734 38.0049 13.9137 38.0049C13.154 38.0049 12.5324 37.3827 12.5324 36.6222V35.8755C12.1457 35.8202 11.8694 35.7787 11.759 35.7511C10.6816 35.4884 9.81139 35.0321 9.16221 34.3684C8.1539 33.3452 8.77546 31.6168 10.212 31.4508Z" fill="white"/>
<path d="M13.1401 6.57604L22.6707 9.17553C23.0989 9.28615 23.5547 9.17553 23.8724 8.85751L26.552 6.16123C27.1597 5.55284 26.9802 4.50198 26.1929 4.17013C25.3503 3.81063 24.853 3.93507 23.2922 3.83828C21.0132 3.68619 21.8557 1.88867 19.8529 1.32176C17.0076 0.533615 16.386 3.38199 13.955 1.00374C13.3473 0.422998 12.6843 0.146457 12.0903 0.0220134C11.1511 -0.157738 10.3914 0.796329 10.7367 1.68126L12.3113 5.81555C12.4633 6.18888 12.7671 6.47925 13.1401 6.57604Z" fill="white"/>
<path d="M10.0191 12.0093L21.9116 15.3693C22.9199 15.6597 23.9696 15.0651 24.2597 14.0557C24.5498 13.0464 23.9558 11.9955 22.9475 11.7051L11.055 8.34517C10.0467 8.0548 8.99694 8.64936 8.70688 9.65874C8.41682 10.6681 9.02457 11.719 10.0191 12.0093Z" fill="#45BF52"/>
<path d="M45.0331 19.4493L51.8565 29.7919H51.9946L58.8594 19.3248L58.8732 35.3089L64.2187 35.2951L64.2048 13.4898L64.191 10.835H58.4036L51.9808 21.1915L45.558 10.8488L39.7568 10.8627L39.7844 35.3227H45.047L45.0331 19.4493Z" fill="#45BF52"/>
<path d="M71.9399 36.582C71.2355 36.582 70.3653 36.2639 69.6747 35.8491L67.8929 39.6931C69.2603 40.495 70.683 40.979 72.6029 40.979C75.7798 40.979 77.313 39.541 78.7495 35.7247L85.9181 16.5327H80.407L79.7578 18.5791L76.3323 29.3089L72.1333 16.7539L72.0642 16.5465H66.4426L73.7908 35.3375C73.335 36.3054 72.8377 36.582 71.9399 36.582Z" fill="#45BF52"/>
<path d="M105.103 35.2677V33.5808L90.7521 33.5946L90.7383 19.2421L90.7245 10.8076H88.915V19.2974L88.9289 35.2815L105.103 35.2677Z" fill="white"/>
<path d="M115.919 35.6685C119.345 35.6685 121.472 34.272 123.281 32.3086L122.093 31.2577C120.629 32.834 118.751 34.0646 115.988 34.0646C112.494 34.0646 109.317 31.4789 108.999 27.0404L123.765 27.0266C123.806 26.7501 123.806 26.6395 123.792 26.3214C123.792 21.0395 120.601 16.9882 115.615 17.002C110.795 17.002 107.176 21.1363 107.176 26.3076V26.3767C107.19 31.9352 111.237 35.6685 115.919 35.6685ZM115.56 18.5783C119.648 18.5783 121.706 21.8968 121.955 25.4918L108.999 25.5056C109.303 21.5511 112.038 18.5783 115.56 18.5783Z" fill="white"/>
<path d="M134.219 35.6542C137.604 35.6542 139.8 33.9673 141.029 32.2528V35.2256H142.7L142.687 24.1086C142.687 21.9101 142.051 20.2647 140.863 19.0756C139.565 17.7897 137.645 17.126 135.242 17.126C132.797 17.126 130.877 17.762 128.929 18.6746L129.565 20.1818C131.208 19.3383 132.99 18.7437 135.145 18.7437C138.805 18.7437 141.015 20.5966 141.015 24.1916V24.9659C139.302 24.5096 137.59 24.2054 135.117 24.2054C130.504 24.2054 127.327 26.3071 127.341 30.0128V30.0819C127.327 33.7738 130.891 35.6542 134.219 35.6542ZM129.15 29.9575V29.8884C129.15 27.4133 131.236 25.7264 135.007 25.7264C137.562 25.7264 139.551 26.1412 141.043 26.5284V28.561C141.043 31.8103 137.935 34.0503 134.316 34.0503C131.595 34.0503 129.15 32.5432 129.15 29.9575Z" fill="white"/>
<path d="M154.952 35.6398C158.475 35.6398 160.74 33.5657 162.287 31.2289V35.2111H164L163.972 9.7002H162.259L162.273 21.232C160.809 18.992 158.502 16.9732 154.939 16.9732C150.643 16.9732 146.278 20.513 146.292 26.3203V26.3895C146.292 32.183 150.657 35.6398 154.952 35.6398ZM148.129 26.3065V26.2374C148.129 21.4532 151.223 18.6187 155.104 18.6048C158.806 18.6048 162.37 21.6744 162.37 26.2512V26.3203C162.37 30.8694 158.82 33.9805 155.118 33.9805C151.389 33.9943 148.143 30.9939 148.129 26.3065Z" fill="white"/>
</svg>
