<?xml version="1.0" encoding="UTF-8"?>
<svg width="164px" height="35px" viewBox="0 0 164 35" version="1.1" xmlns="http://www.w3.org/2000/svg" xmlns:xlink="http://www.w3.org/1999/xlink">
    <!-- Generator: Sketch 49.1 (51147) - http://www.bohemiancoding.com/sketch -->
    <title>Page 1</title>
    <desc>Created with Sketch.</desc>
    <defs></defs>
    <g id="Homepage" stroke="none" stroke-width="1" fill="none" fill-rule="evenodd">
        <g id="homepage-desktop" transform="translate(-126.000000, -23.000000)">
            <g id="Page-1" transform="translate(126.000000, 23.000000)">
                <path d="M2.3916,1.18880682 C1.7324,1.18880682 1.196,1.72255682 1.196,2.37761364 L1.196,32.2497159 C1.196,32.9047727 1.7324,33.4385227 2.3916,33.4385227 L21.0748,33.4385227 C21.7336,33.4385227 22.2704,32.9047727 22.2704,32.2497159 L22.2704,2.37761364 C22.2704,1.72255682 21.7336,1.18880682 21.0748,1.18880682 L2.3916,1.18880682 Z M21.0748,34.6273295 L2.3916,34.6273295 C1.0728,34.6273295 0,33.5610227 0,32.2497159 L0,2.37761364 C0,1.06630682 1.0728,0 2.3916,0 L21.0748,0 C22.3936,0 23.466,1.06630682 23.466,2.37761364 L23.466,32.2497159 C23.466,33.5610227 22.3936,34.6273295 21.0748,34.6273295 Z" id="Fill-1" fill="#9855FC"></path>
                <path d="M4.48416,25.5620511 L12.10696,25.5620511 C12.27336,25.5620511 12.43256,25.630858 12.54576,25.7525625 L15.84336,29.2959148 L15.84336,26.1562557 C15.84336,25.827733 16.11056,25.5620511 16.44136,25.5620511 L18.98216,25.5620511 L18.98216,6.53915341 L4.48416,6.53915341 L4.48416,25.5620511 Z M16.44136,31.4078466 C16.27776,31.4078466 16.11776,31.3410284 16.00216,31.2173352 L11.84496,26.750858 L3.88616,26.750858 C3.55576,26.750858 3.28856,26.4847784 3.28856,26.1562557 L3.28856,5.94494886 C3.28856,5.61642614 3.55576,5.35034659 3.88616,5.35034659 L19.58016,5.35034659 C19.91016,5.35034659 20.17776,5.61642614 20.17776,5.94494886 L20.17776,26.1562557 C20.17776,26.4847784 19.91016,26.750858 19.58016,26.750858 L17.03896,26.750858 L17.03896,30.8132443 C17.03896,31.0574489 16.88856,31.2777898 16.65896,31.366483 C16.58816,31.3943239 16.51496,31.4078466 16.44136,31.4078466 Z" id="Fill-3" fill="#9855FC"></path>
                <path d="M14.1992,3.77753409 L9.2668,3.77753409 C8.9364,3.77753409 8.6692,3.51185227 8.6692,3.18332955 C8.6692,2.85480682 8.9364,2.58872727 9.2668,2.58872727 L14.1992,2.58872727 C14.5296,2.58872727 14.7972,2.85480682 14.7972,3.18332955 C14.7972,3.51185227 14.5296,3.77753409 14.1992,3.77753409" id="Fill-5" fill="#9855FC"></path>
                <path d="M35.66816,16.3249545 L34.85536,16.3249545 C34.61616,16.3249545 34.42496,16.1109773 34.42496,15.8731364 L34.42496,14.2798409 C34.42496,14.0185341 34.61616,13.8284205 34.85536,13.8284205 L35.66816,13.8284205 L35.66816,11.1891023 C35.66816,10.9512614 35.88336,10.7372841 36.12256,10.7372841 L38.08376,10.7138182 C38.32256,10.7138182 38.51376,10.9277955 38.51376,11.1652386 L38.51376,13.8284205 L40.61816,13.8284205 C40.88136,13.8284205 41.07256,14.0185341 41.07256,14.2798409 L41.07256,15.8731364 C41.07256,16.1109773 40.88136,16.3249545 40.61816,16.3249545 L38.51376,16.3249545 L38.51376,20.1292159 C38.51376,20.7954091 38.87256,20.8904659 39.25536,20.8904659 C39.66176,20.8904659 40.16416,20.7242159 40.42696,20.6287614 C40.69016,20.5337045 40.88136,20.652625 40.95296,20.8904659 L41.43136,22.3883068 C41.52696,22.6261477 41.40736,22.8639886 41.16816,22.9594432 C41.04896,23.0302386 39.49416,23.5771136 38.32256,23.5771136 C36.48136,23.5771136 35.66816,22.4360341 35.66816,20.5098409 L35.66816,16.3249545 Z" id="Fill-7" fill="#FFFFFF"></path>
                <path d="M43.416,7.14696023 C43.416,6.90911932 43.6312,6.69514205 43.8704,6.69514205 L45.9032,6.69514205 C46.142,6.69514205 46.3576,6.90911932 46.3576,7.14696023 L46.3576,14.3752557 C46.8356,14.0184943 47.7684,13.5905398 48.892,13.5905398 C51.9292,13.5905398 53.1728,15.9212216 53.1728,18.3226989 L53.1728,22.8878125 C53.1728,23.1256534 52.9576,23.3396307 52.7184,23.3396307 L50.7816,23.3396307 C50.5184,23.3396307 50.3272,23.1256534 50.3272,22.8878125 L50.3272,18.2988352 C50.3272,16.991108 49.5856,16.1586648 48.438,16.1586648 C47.338,16.1586648 46.5964,16.8721875 46.3576,17.8466193 L46.3576,22.8878125 C46.3576,23.1491193 46.214,23.3396307 45.8552,23.3396307 L43.8704,23.3396307 C43.6312,23.3396307 43.416,23.1256534 43.416,22.8878125 L43.416,7.14696023 Z" id="Fill-9" fill="#FFFFFF"></path>
                <path d="M61.68612,17.3950398 C61.61452,16.515267 60.84932,15.7782784 59.94092,15.7782784 C58.98412,15.7782784 58.19492,16.4918011 58.07532,17.3950398 L61.68612,17.3950398 Z M60.01212,13.5907784 C62.47572,13.5907784 64.48412,15.4453807 64.48412,18.0135057 C64.48412,18.1801534 64.46052,18.4887898 64.43652,18.6554375 C64.41212,18.8932784 64.19692,19.0599261 63.98212,19.0599261 L57.86052,19.0599261 C57.93172,20.0347557 58.76892,21.1285057 60.15572,21.1285057 C60.89692,21.1285057 61.59092,20.8429375 62.02132,20.5339034 C62.26052,20.3911193 62.47572,20.343392 62.64292,20.5339034 L63.62332,21.6511193 C63.79092,21.817767 63.83852,22.0790739 63.59932,22.2695852 C62.81052,23.0065739 61.59092,23.5773125 60.03612,23.5773125 C57.16652,23.5773125 55.13412,21.3182216 55.13412,18.5838466 C55.13412,15.8971989 57.16652,13.5907784 60.01212,13.5907784 Z" id="Fill-11" fill="#FFFFFF"></path>
                <path d="M70.65372,21.0095455 C71.92132,21.0095455 72.94932,19.9157955 72.94932,18.5603409 C72.94932,17.22875 71.92132,16.1588636 70.65372,16.1588636 C69.36212,16.1588636 68.35812,17.22875 68.35812,18.5603409 C68.35812,19.9157955 69.36212,21.0095455 70.65372,21.0095455 M70.65372,13.5907386 C73.35612,13.5907386 75.55612,15.8732955 75.55612,18.5603409 C75.55612,21.2947159 73.35612,23.5772727 70.65372,23.5772727 C67.95132,23.5772727 65.75132,21.2947159 65.75132,18.5603409 C65.75132,15.8732955 67.95132,13.5907386 70.65372,13.5907386" id="Fill-13" fill="#FFFFFF"></path>
                <path d="M77.68456,14.28 C77.68456,14.0186932 77.89976,13.8281818 78.13896,13.8281818 L79.04776,13.8281818 C79.26296,13.8281818 79.40656,13.9471023 79.47816,14.1376136 L79.81296,15.0651136 C80.14776,14.5890341 81.03256,13.5907386 82.51496,13.5907386 C83.63936,13.5907386 84.64336,13.9471023 84.35656,14.5417045 L83.47176,16.0872727 C83.35216,16.30125 83.11296,16.3963068 82.92176,16.30125 C82.84976,16.2773864 82.49136,16.1588636 82.22816,16.1588636 C81.27176,16.1588636 80.69776,16.8007955 80.53016,17.1336932 L80.53016,22.8880114 C80.53016,23.2205114 80.31496,23.3394318 79.98016,23.3394318 L78.13896,23.3394318 C77.89976,23.3394318 77.68456,23.1254545 77.68456,22.8880114 L77.68456,14.28 Z" id="Fill-15" fill="#FFFFFF"></path>
                <path d="M91.60252,17.3950398 C91.53052,16.515267 90.76532,15.7782784 89.85692,15.7782784 C88.90012,15.7782784 88.11092,16.4918011 87.99132,17.3950398 L91.60252,17.3950398 Z M89.92812,13.5907784 C92.39172,13.5907784 94.40012,15.4453807 94.40012,18.0135057 C94.40012,18.1801534 94.37652,18.4887898 94.35252,18.6554375 C94.32812,18.8932784 94.11292,19.0599261 93.89772,19.0599261 L87.77612,19.0599261 C87.84772,20.0347557 88.68492,21.1285057 90.07212,21.1285057 C90.81292,21.1285057 91.50692,20.8429375 91.93732,20.5339034 C92.17652,20.3911193 92.39172,20.343392 92.55892,20.5339034 L93.53932,21.6511193 C93.70692,21.817767 93.75452,22.0790739 93.51532,22.2695852 C92.72652,23.0065739 91.50692,23.5773125 89.95212,23.5773125 C87.08252,23.5773125 85.05012,21.3182216 85.05012,18.5838466 C85.05012,15.8971989 87.08252,13.5907784 89.92812,13.5907784 Z" id="Fill-17" fill="#FFFFFF"></path>
                <path d="M96.40916,14.28 C96.40916,14.0186932 96.62436,13.8281818 96.86356,13.8281818 L97.74836,13.8281818 C97.96356,13.8281818 98.10716,13.9471023 98.15476,14.0898864 L98.48956,14.9935227 C98.89636,14.5417045 99.99636,13.5907386 101.69396,13.5907386 C103.05716,13.5907386 104.01396,14.11375 104.80276,15.0651136 C105.20956,14.6367614 106.45276,13.5907386 108.17476,13.5907386 C111.23556,13.5907386 112.35956,15.8494318 112.35956,18.3463636 L112.35956,22.8880114 C112.35956,23.1254545 112.16796,23.3394318 111.90516,23.3394318 L109.96796,23.3394318 C109.70516,23.3394318 109.51396,23.1254545 109.51396,22.8880114 L109.51396,18.1801136 C109.51396,16.9431818 108.91636,16.1588636 107.72036,16.1588636 C106.33356,16.1588636 105.71156,17.1571591 105.71156,17.1571591 C105.71156,17.1571591 105.73516,17.6328409 105.73516,18.0607955 L105.73516,22.8880114 C105.73516,23.1254545 105.51996,23.3394318 105.28116,23.3394318 L103.48756,23.3394318 C103.22436,23.3394318 103.03356,23.1254545 103.03356,22.8880114 L103.03356,18.1801136 C103.03356,16.9431818 102.48356,16.1588636 101.26396,16.1588636 C100.06796,16.1588636 99.49396,17.0147727 99.25476,17.6567045 L99.25476,22.8880114 C99.25476,23.1254545 99.03956,23.3394318 98.80076,23.3394318 L96.86356,23.3394318 C96.62436,23.3394318 96.40916,23.1254545 96.40916,22.8880114 L96.40916,14.28 Z" id="Fill-19" fill="#FFFFFF"></path>
                <path d="M115.03808,14.28 C115.03808,14.0186932 115.25328,13.8281818 115.49248,13.8281818 L116.40128,13.8281818 C116.61648,13.8281818 116.76008,13.9471023 116.83168,14.1376136 L117.16648,15.0651136 C117.50128,14.5890341 118.38608,13.5907386 119.86848,13.5907386 C120.99288,13.5907386 121.99688,13.9471023 121.71008,14.5417045 L120.82528,16.0872727 C120.70568,16.30125 120.46648,16.3963068 120.27528,16.30125 C120.20328,16.2773864 119.84488,16.1588636 119.58168,16.1588636 C118.62528,16.1588636 118.05128,16.8007955 117.88368,17.1336932 L117.88368,22.8880114 C117.88368,23.2205114 117.66848,23.3394318 117.33368,23.3394318 L115.49248,23.3394318 C115.25328,23.3394318 115.03808,23.1254545 115.03808,22.8880114 L115.03808,14.28 Z" id="Fill-21" fill="#9855FC"></path>
                <path d="M128.95644,17.3950398 C128.88444,16.515267 128.11924,15.7782784 127.21084,15.7782784 C126.25404,15.7782784 125.46484,16.4918011 125.34524,17.3950398 L128.95644,17.3950398 Z M127.28204,13.5907784 C129.74564,13.5907784 131.75404,15.4453807 131.75404,18.0135057 C131.75404,18.1801534 131.73044,18.4887898 131.70644,18.6554375 C131.68204,18.8932784 131.46684,19.0599261 131.25164,19.0599261 L125.13004,19.0599261 C125.20164,20.0347557 126.03884,21.1285057 127.42604,21.1285057 C128.16684,21.1285057 128.86084,20.8429375 129.29124,20.5339034 C129.53044,20.3911193 129.74564,20.343392 129.91284,20.5339034 L130.89324,21.6511193 C131.06084,21.817767 131.10844,22.0790739 130.86924,22.2695852 C130.08044,23.0065739 128.86084,23.5773125 127.30604,23.5773125 C124.43644,23.5773125 122.40404,21.3182216 122.40404,18.5838466 C122.40404,15.8971989 124.43644,13.5907784 127.28204,13.5907784 Z" id="Fill-23" fill="#9855FC"></path>
                <path d="M136.94316,21.5564205 C137.70836,21.5564205 138.44996,20.9144886 138.59316,20.6289205 L138.59316,19.3211932 C138.59316,19.3211932 137.94756,19.035625 137.25396,19.035625 C136.32156,19.035625 135.69996,19.5590341 135.69996,20.3198864 C135.69996,21.0334091 136.20156,21.5564205 136.94316,21.5564205 M136.89556,17.3238068 C137.85196,17.3238068 138.64116,17.5855114 138.64116,17.5855114 C138.66516,16.3728409 138.28236,15.9448864 137.39756,15.9448864 C136.51276,15.9448864 135.26916,16.135 134.71916,16.30125 C134.38476,16.3963068 134.21716,16.1823295 134.16916,15.8732955 L133.95396,14.6371591 C133.88236,14.28 134.07356,14.11375 134.28876,14.0421591 C134.48036,13.9713636 136.01076,13.5907386 137.54116,13.5907386 C140.53036,13.5907386 141.22356,15.1359091 141.22356,17.7278977 L141.22356,22.8880114 C141.22356,23.1254545 141.00836,23.3394318 140.76916,23.3394318 L139.90836,23.3394318 C139.74116,23.3394318 139.62156,23.2682386 139.50196,23.0065341 L139.21516,22.3646023 C138.66516,22.8641477 137.78036,23.5772727 136.29756,23.5772727 C134.38476,23.5772727 133.06916,22.3411364 133.06916,20.3198864 C133.06916,18.6315341 134.45596,17.3238068 136.89556,17.3238068" id="Fill-25" fill="#9855FC"></path>
                <path d="M148.32636,13.5905795 C149.80876,13.5905795 150.95676,14.1851818 151.86556,15.2789318 C152.03316,15.4929091 151.98476,15.7780795 151.74596,15.9447273 L150.64596,16.9911477 C150.43076,17.1808636 150.21556,17.0623409 150.04836,16.9195568 C149.66556,16.4916023 149.06796,16.1587045 148.39836,16.1587045 C147.10676,16.1587045 146.05436,17.2524545 146.05436,18.5840455 C146.05436,19.9395 147.08316,21.0093864 148.37396,21.0093864 C149.40236,21.0093864 149.85676,20.5098409 150.28716,20.10575 C150.45436,19.9395 150.69396,19.8917727 150.88476,20.0345568 L151.91356,20.9143295 C152.15236,21.1044432 152.24836,21.3422841 152.08076,21.580125 C151.26796,22.840125 150.00036,23.5771136 148.30236,23.5771136 C145.60036,23.5771136 143.23276,21.4373409 143.23276,18.5840455 C143.23276,15.7780795 145.64796,13.5905795 148.32636,13.5905795" id="Fill-27" fill="#9855FC"></path>
                <path d="M154.16112,7.14696023 C154.16112,6.90911932 154.37632,6.69514205 154.61552,6.69514205 L156.64832,6.69514205 C156.88712,6.69514205 157.10272,6.90911932 157.10272,7.14696023 L157.10272,14.3752557 C157.58072,14.0184943 158.51352,13.5905398 159.63712,13.5905398 C162.67432,13.5905398 163.91792,15.9212216 163.91792,18.3226989 L163.91792,22.8878125 C163.91792,23.1256534 163.70272,23.3396307 163.46352,23.3396307 L161.52672,23.3396307 C161.26352,23.3396307 161.07192,23.1256534 161.07192,22.8878125 L161.07192,18.2988352 C161.07192,16.991108 160.33112,16.1586648 159.18312,16.1586648 C158.08312,16.1586648 157.34152,16.8721875 157.10272,17.8466193 L157.10272,22.8878125 C157.10272,23.1491193 156.95912,23.3396307 156.60032,23.3396307 L154.61552,23.3396307 C154.37632,23.3396307 154.16112,23.1256534 154.16112,22.8878125 L154.16112,7.14696023 Z" id="Fill-29" fill="#9855FC"></path>
            </g>
        </g>
    </g>
</svg>