<svg width="56" height="61" viewBox="0 0 56 61" fill="none" xmlns="http://www.w3.org/2000/svg">
<path d="M55.1288 22.0066C53.6088 29.2022 51.0493 35.9577 47.3425 42.2156C46.0775 44.3494 44.6359 46.3779 43.263 48.4352C42.8119 49.105 42.7923 49.0954 42.1157 48.7414C36.8006 45.9378 32.2014 42.1773 28.3279 37.4217C28.3181 37.4026 28.2985 37.393 28.2887 37.3739C27.9258 36.9337 27.2394 36.9337 26.8765 37.3739C26.8765 37.3739 26.8765 37.3834 26.8667 37.3834C23.003 42.139 18.4038 45.8995 13.0887 48.7127C12.3827 49.0858 12.3827 49.0763 11.8924 48.416C7.5285 42.5026 4.12568 36.0151 1.88982 28.8865C1.17395 26.6283 0.654215 24.2935 0.0462184 21.9875C-0.0322328 21.7005 -0.0420392 21.4708 0.271766 21.2794C2.98814 19.5954 5.81238 18.1409 8.76411 16.964C8.77392 16.964 8.77392 16.964 8.78372 16.9544C8.9014 16.9161 9.01908 17.0023 9.03869 17.1171C10.0782 23.3463 12.0198 29.2118 14.9127 34.7233C15.0598 35.0008 15.4521 35.0582 15.6678 34.8286C16.825 33.623 17.9723 32.4843 19.0314 31.2691C20.9142 29.1066 22.4735 26.6953 23.7483 24.0926C23.8856 23.8151 24.0327 23.6524 24.3563 23.6524C26.4254 23.662 28.5044 23.662 30.5736 23.6333C31.0737 23.6237 31.3286 23.8438 31.5542 24.2935C33.5645 28.3506 36.2711 31.8241 39.566 34.7999C39.7916 35.0008 40.1544 34.9434 40.2917 34.6755C43.1748 29.2022 45.0772 23.4132 46.1265 17.2415C46.1657 17.0023 46.4403 16.8683 46.6659 16.9831L47.519 17.4233C49.9608 18.6863 52.383 19.9685 54.8248 21.2316C55.1582 21.4134 55.2072 21.6239 55.1288 22.0066Z" fill="#059FFB"/>
<path d="M27.0544 61.0002C22.6682 58.1207 18.558 55.0348 14.6549 51.5362C14.6746 51.5558 14.645 51.5264 14.576 51.4674C14.4972 51.3888 14.507 51.261 14.6056 51.1922C18.9129 48.2734 23.1808 45.3742 27.3698 42.534C27.4782 42.4652 27.6162 42.4652 27.7246 42.534C31.9531 45.4037 36.2801 48.3422 40.6663 51.32C39.8974 51.9981 39.1286 52.7646 38.2613 53.4133C34.9002 55.939 31.4997 58.4156 28.1287 60.9216" fill="#059FFB"/>
<path d="M32.1636 11.424L31.3213 21.4573C31.3213 21.6408 31.1954 21.7857 31.0406 21.7857H24.2832C24.1283 21.7857 24.0025 21.6408 24.0025 21.4573L23.0634 11.424C23.0634 11.2308 22.9279 11.0763 22.7633 11.0956C15.0378 11.8682 7.77708 14.3306 0.787384 18.5603C0.603445 18.6762 0.380781 18.512 0.380781 18.2706C0.3711 17.0925 0.342057 16.0399 0.390462 14.9873C0.506634 12.3703 0.671212 9.75334 0.806746 7.13635C0.826108 6.67283 0.981004 6.44107 1.3392 6.25759C7.08004 3.40884 13.0145 1.4292 19.191 0.647004C22.0566 0.280046 24.9415 0 27.8168 0C36.8492 0.00965677 45.5524 2.08586 53.8877 6.25759C54.2266 6.42175 54.3718 6.6342 54.4105 7.07841C54.759 10.7866 54.9043 14.5045 54.7881 18.232C54.7784 18.4734 54.5654 18.6183 54.3815 18.512C50.935 16.4551 47.4305 14.7652 43.7711 13.5291C40.0826 12.2931 36.3361 11.4626 32.4637 11.086C32.2991 11.0763 32.1636 11.2308 32.1636 11.424Z" fill="#059FFB"/>
</svg>
